<?xml version="1.0" standalone="no"?>
<!DOCTYPE svg PUBLIC "-//W3C//DTD SVG 20010904//EN"
 "http://www.w3.org/TR/2001/REC-SVG-20010904/DTD/svg10.dtd">
<svg version="1.0" xmlns="http://www.w3.org/2000/svg"
 width="1200.000000pt" height="628.000000pt" viewBox="0 0 1200.000000 628.000000"
 preserveAspectRatio="xMidYMid meet">

<g transform="translate(0.000000,628.000000) scale(0.100000,-0.100000)"
fill="#000000" stroke="none">
<path d="M0 3140 l0 -3140 6000 0 6000 0 0 3140 0 3140 -6000 0 -6000 0 0
-3140z m6529 1447 c8 -11 -37 -128 -195 -508 -114 -272 -211 -500 -217 -507
-16 -20 -121 -12 -125 9 -4 21 402 999 420 1010 21 14 104 10 117 -4z m-1291
-211 c2 -27 1 -59 -2 -70 -4 -13 -65 -60 -156 -121 -82 -55 -149 -103 -150
-106 0 -3 63 -48 139 -99 77 -50 147 -100 156 -110 23 -26 17 -133 -7 -138
-10 -2 -101 53 -205 124 -259 175 -263 179 -263 218 0 18 6 40 13 49 23 31
432 306 452 304 17 -2 21 -10 23 -51z m1661 -97 c232 -158 245 -171 225 -228
-12 -32 -429 -322 -459 -318 -17 2 -20 11 -23 61 -2 43 1 63 13 76 9 10 79 60
156 110 76 51 139 96 139 99 0 3 -60 46 -134 94 -179 118 -176 115 -176 186 0
60 4 71 26 71 7 0 112 -68 233 -151z m-1344 -529 l0 -85 -80 0 -80 0 -3 74
c-2 41 -1 80 2 88 4 11 24 13 83 11 l78 -3 0 -85z m320 0 l0 -85 -80 0 -80 0
-3 74 c-2 41 -1 80 2 88 4 11 24 13 83 11 l78 -3 0 -85z m-2569 -788 c6 -4 41
-65 77 -137 99 -196 82 -194 173 -14 62 121 83 154 99 154 19 0 20 -7 20 -240
0 -233 -1 -240 -20 -240 -19 0 -20 8 -25 183 l-5 183 -63 -126 c-58 -117 -64
-126 -88 -123 -23 3 -37 22 -95 133 l-69 130 0 -192 c0 -186 -1 -193 -20 -193
-19 0 -20 7 -20 238 0 253 2 267 36 244z m542 -240 c2 -237 2 -242 -18 -242
-19 0 -20 6 -20 238 0 131 3 242 7 246 23 23 28 -14 31 -242z m409 222 c61
-45 97 -134 55 -134 -13 0 -24 13 -34 39 -9 21 -28 47 -42 57 -40 25 -114 29
-156 7 -55 -28 -70 -70 -70 -191 0 -158 31 -202 140 -202 69 0 103 20 129 75
24 51 51 60 51 18 0 -130 -219 -190 -316 -87 -43 45 -58 112 -52 229 6 108 29
160 87 194 49 29 165 26 208 -5z m221 -87 l3 -107 134 0 134 0 3 108 c2 87 6
107 18 107 13 0 15 -35 18 -242 2 -238 2 -243 -18 -243 -19 0 -20 6 -20 110
l0 110 -135 0 -135 0 0 -111 c0 -109 0 -110 -22 -107 -23 3 -23 3 -26 232 -2
163 1 233 9 243 25 30 34 6 37 -100z m629 101 c11 -19 183 -458 183 -470 0 -5
-9 -8 -21 -6 -15 2 -27 19 -43 58 l-22 55 -124 0 -124 0 -22 -55 c-21 -51 -45
-73 -58 -52 -5 8 148 413 175 463 11 22 44 25 56 7z m303 -214 l5 -219 128 -3
c119 -2 127 -4 127 -22 0 -19 -7 -20 -150 -20 l-150 0 0 238 c0 131 3 242 7
246 23 23 28 -14 33 -220z m749 208 c60 -30 97 -104 56 -110 -15 -2 -24 6 -32
28 -19 51 -100 74 -172 49 -36 -13 -51 -35 -51 -78 0 -39 32 -63 118 -91 137
-45 181 -89 169 -168 -10 -62 -85 -112 -168 -112 -86 0 -179 60 -179 116 0 36
34 32 50 -6 19 -46 60 -63 142 -58 80 4 109 25 110 78 1 44 -31 71 -119 100
-37 13 -85 31 -105 41 -90 46 -88 167 3 212 45 22 135 22 178 -1z m378 6 c11
-19 183 -458 183 -470 0 -5 -9 -8 -21 -6 -15 2 -27 19 -43 58 l-22 55 -124 0
-124 0 -22 -55 c-21 -51 -45 -73 -58 -52 -5 8 148 413 175 463 11 22 44 25 56
7z m383 -140 c42 -81 79 -150 82 -154 3 -3 43 65 88 151 114 217 114 217 118
-93 2 -236 2 -242 -18 -242 -19 0 -20 8 -22 193 l-3 192 -68 -132 c-59 -117
-70 -133 -92 -133 -22 0 -33 16 -92 133 l-68 132 -3 -192 c-2 -185 -3 -193
-22 -193 -19 0 -20 8 -20 238 0 131 3 242 7 246 19 19 43 -11 113 -146z m460
-34 c6 -195 13 -225 61 -250 38 -19 115 -18 149 3 48 28 54 54 60 248 4 151 7
180 20 180 13 0 15 -29 15 -197 0 -184 -1 -198 -21 -225 -35 -47 -82 -68 -149
-68 -67 0 -114 21 -149 68 -19 26 -21 44 -24 214 -3 191 -1 218 21 211 9 -3
13 -53 17 -184z m480 -40 l5 -219 128 -3 c119 -2 127 -4 127 -22 0 -19 -7 -20
-150 -20 l-150 0 0 238 c0 131 3 242 7 246 23 23 28 -14 33 -220z m527 214
c11 -19 183 -458 183 -470 0 -5 -9 -8 -21 -6 -15 2 -27 19 -43 58 l-22 55
-124 0 -124 0 -22 -55 c-21 -51 -45 -73 -58 -52 -5 8 148 413 175 463 11 22
44 25 56 7z m301 -86 c1 -51 6 -92 10 -92 4 0 56 43 116 96 59 52 113 93 119
91 28 -9 10 -33 -98 -129 l-116 -103 63 -60 c35 -33 91 -86 126 -118 34 -32
62 -63 62 -68 0 -30 -53 3 -158 98 l-117 107 -3 -107 c-2 -99 -4 -107 -22
-107 -19 0 -20 8 -20 238 0 131 3 242 7 246 19 19 28 -8 31 -92z"/>
<path d="M5027 2778 c-26 -68 -47 -126 -47 -130 0 -5 45 -8 100 -8 55 0 100 3
100 8 0 14 -93 252 -99 252 -3 0 -28 -55 -54 -122z"/>
<path d="M6457 2778 c-26 -68 -47 -126 -47 -130 0 -5 45 -8 100 -8 55 0 100 3
100 8 0 14 -93 252 -99 252 -3 0 -28 -55 -54 -122z"/>
<path d="M8307 2778 c-26 -68 -47 -126 -47 -130 0 -5 45 -8 100 -8 55 0 100 3
100 8 0 14 -93 252 -99 252 -3 0 -28 -55 -54 -122z"/>
</g>
</svg>
